<svg id="Layer_1" data-name="Layer 1" xmlns="http://www.w3.org/2000/svg" viewBox="0 0 29.95 23.69"><defs><style>.cls-1{fill:#242a2b;}</style></defs><g id="Layer_2" data-name="Layer 2"><g id="Layer_1-2" data-name="Layer 1-2"><path class="cls-1" d="M3.76,23.69H26.19a1.26,1.26,0,0,0,1.25-1l2.48-15a1.26,1.26,0,0,0-1-1.45,1.21,1.21,0,0,0-.87.16l-7.52,4.31L16.11.74A1.26,1.26,0,0,0,14.47.11a1.23,1.23,0,0,0-.64.63l-4.42,10L1.89,6.4a1.25,1.25,0,0,0-1.71.43A1.3,1.3,0,0,0,0,7.69l2.49,15A1.24,1.24,0,0,0,3.76,23.69Zm5.6-10.13a1.21,1.21,0,0,0,1,.09,1.18,1.18,0,0,0,.75-.68L15,4.32,18.8,13a1.26,1.26,0,0,0,1.75.59L27,9.87,25.12,21.19H4.79L2.93,9.87Z" transform="translate(0.01 0)"/></g></g></svg>