<?xml version="1.0" encoding="utf-8"?>
<!-- Generator: Adobe Illustrator 24.1.0, SVG Export Plug-In . SVG Version: 6.00 Build 0)  -->
<svg version="1.1" id="Layer_1" xmlns="http://www.w3.org/2000/svg" xmlns:xlink="http://www.w3.org/1999/xlink" x="0px" y="0px"
	 viewBox="0 0 5000 683.8" style="enable-background:new 0 0 5000 683.8;" xml:space="preserve">
<style type="text/css">
	.st0{fill:#937F69;}
	.st1{fill:#E1E1E1;}
</style>
<g transform="rotate(0 185.6664 0)">
	<g transform="matrix(1 0 0 1 0 0)">
		<path class="st0" d="M2383.4,246.4h233.3c6.4,0.1,11.9-4.5,13-10.8L2655.5,80c1.3-7-3.4-13.8-10.4-15.1c-3.1-0.6-6.3,0-9,1.7
			l-78.2,44.8l-46-103.7c-2.9-6.5-10.5-9.5-17.1-6.6c-3,1.3-5.3,3.7-6.6,6.6l-46,103.7l-78.2-44.8c-6.1-3.7-14.1-1.7-17.8,4.4
			c-1.6,2.7-2.2,5.9-1.7,9l25.9,155.5C2371.5,241.9,2377,246.5,2383.4,246.4z M2441.7,141c3.2,1.8,7,2.2,10.4,1
			c3.5-1.1,6.3-3.7,7.8-7.1l40-90l40,90c1.5,3.4,4.3,5.9,7.8,7.1c3.5,1.2,7.3,0.8,10.5-1l67-38.3l-19.6,117.7h-211.4l-19.4-117.7
			L2441.7,141z"/>
	</g>
</g>
<g transform="rotate(0 0 13.045999999999992)">
	<rect y="164.7" class="st0" width="2188.5" height="20.8"/>
</g>
<g transform="rotate(0 222.66719999999998 13.045999999999992)">
	<rect x="2811.5" y="164.7" class="st0" width="2188.5" height="20.8"/>
</g>
<g transform="rotate(0 0 34.424199999999985)">
	<g transform="matrix(1 0 0 1 0 0)">
		<path class="st1" d="M125.7,680.1H0v-6l31.6-15.2v-203L0,440.6v-6h128.7c29.3,0,52.7,5.3,70.5,15.8s26.6,27.3,26.6,50.4l0,0
			c0,13.9-4.6,26.1-13.9,36.6c-9.3,10.5-21.9,18.7-37.7,24.5s-34,8.7-54.3,8.7l0,0h-32v88.1l37.9,15.2V680.1z M103.4,455.1H87.8
			v97.4h17.9c19.8,0,35.3-4.6,46.5-13.8c11.2-9.2,16.7-20.7,16.7-34.6l0,0c0-17.4-5.7-29.9-17.1-37.6
			C140.3,458.9,124.2,455.1,103.4,455.1L103.4,455.1z"/>
		<path class="st1" d="M378.6,680.1H273v-6l27.5-12.3V490.1L273,477.8v-6h113.8c22.6,0,40.3,4.5,53.4,13.6s19.5,21.4,19.5,37l0,0
			c0,22.8-13.9,39-41.7,48.7l0,0l57.3,91.1l24.2,11.9v6h-77l-53.9-94.8h-13.8v76.2l23.8,12.6V680.1z M365.2,488.9L365.2,488.9h-10.4
			v78.8h11.5c13.1,0,22.9-3.7,29.2-11c6.3-7.3,9.5-17,9.5-29.2l0,0C405,501.8,391.7,488.9,365.2,488.9z"/>
		<path class="st1" d="M645.2,683.8L645.2,683.8c-21.8,0-41.1-4.7-57.8-14.1s-29.9-22.3-39.6-38.5c-9.7-16.2-14.5-34.8-14.5-55.6
			l0,0c0-20.6,4.8-39,14.5-55.4c9.7-16.4,22.9-29.3,39.6-38.7c16.7-9.4,36-14.1,57.8-14.1l0,0c21.8,0,41.2,4.7,58,14.1
			c16.9,9.4,30.1,22.3,39.8,38.7c9.7,16.4,14.5,34.8,14.5,55.4l0,0c0,20.8-4.8,39.4-14.5,55.6s-22.9,29.1-39.8,38.5
			S667,683.8,645.2,683.8z M650.4,664.5L650.4,664.5c15.9,0,28.3-7.4,37.4-22.3c9-14.9,13.6-34,13.6-57.3l0,0
			c0-19.1-2.5-36-7.6-50.8c-5.1-14.8-12.1-26.3-21.2-34.8c-9-8.4-19.4-12.6-31.1-12.6l0,0c-10.4,0-19.5,3.3-27.3,10
			c-7.8,6.7-13.9,16-18.2,27.9c-4.3,11.9-6.5,25.7-6.5,41.3l0,0c0,19.1,2.6,36.1,7.8,50.9c5.2,14.9,12.4,26.5,21.6,35
			C628,660.3,638.5,664.5,650.4,664.5z"/>
		<path class="st1" d="M925.6,683.8L925.6,683.8c-21.1,0-40.1-4.3-57.1-13c-17-8.7-30.5-20.8-40.5-36.4
			c-10-15.6-15.1-33.7-15.1-54.3l0,0c0-16.6,3.2-31.8,9.7-45.6c6.4-13.8,15.4-25.7,26.8-35.7c11.4-10,24.5-17.7,39.4-23.1
			c14.9-5.3,30.7-8,47.6-8l0,0c16.6,0,30.2,1.5,40.7,4.5c10.5,3,20.4,6.6,29.6,10.8l0,0l3.3,55.8h-6.3l-27.1-41.7
			c-6.7-4.2-12.7-7.1-18-8.7c-5.3-1.6-11.6-2.4-18.8-2.4l0,0c-15.1,0-28.1,3.8-38.9,11.3c-10.8,7.6-19,18-24.7,31.2
			c-5.7,13.3-8.6,28.6-8.6,45.9l0,0c0,27,6.1,48.8,18.2,65.3c12.1,16.5,29.3,24.7,51.3,24.7l0,0c6.7,0,13.4-0.7,20.1-2.2l0,0v-56.9
			L929,590.8v-5.6h105.2v5.6l-23.8,14.9v51.7c-6,5.2-13.6,9.8-22.9,13.8c-9.3,4-19.3,7.1-29.9,9.3
			C946.9,682.7,936.3,683.8,925.6,683.8z"/>
		<path class="st1" d="M1185.9,680.1h-105.6v-6l27.5-12.3V490.1l-27.5-12.3v-6h113.8c22.6,0,40.3,4.5,53.4,13.6
			c13,9,19.5,21.4,19.5,37l0,0c0,22.8-13.9,39-41.7,48.7l0,0l57.3,91.1l24.2,11.9v6h-77l-53.9-94.8h-13.8v76.2l23.8,12.6V680.1z
			 M1172.6,488.9L1172.6,488.9h-10.4v78.8h11.5c13.1,0,22.9-3.7,29.2-11c6.3-7.3,9.5-17,9.5-29.2l0,0
			C1212.3,501.8,1199.1,488.9,1172.6,488.9z"/>
		<path class="st1" d="M1527.3,680.1h-188.5v-6l27.5-12.3V490.1l-27.5-12.3v-6h179.6v55.8h-6l-24.2-36.8h-67.7v72.9h48l17.1-26.8
			h5.6v70.7h-5.6l-17.1-26.4h-48v80h75.1l25.7-48h6V680.1z"/>
		<path class="st1" d="M1654.5,683.8L1654.5,683.8c-14.1,0-26.6-1.5-37.4-4.5c-10.8-3-21.1-6.9-31.1-11.9l0,0l-3.3-52.8h6l25.7,39.8
			c11.2,7.2,24,10.8,38.7,10.8l0,0c12.1,0,21.7-2.4,28.6-7.1c6.9-4.7,10.4-11.8,10.4-21.2l0,0c0-6.9-1.9-12.5-5.6-16.5
			c-3.7-4.1-9.7-8.2-18-12.3c-8.3-4.1-19.3-9.4-32.9-15.8l0,0c-15.4-6.9-26.8-15.1-34.4-24.5s-11.3-21.1-11.3-35l0,0
			c0-11.9,3.5-22.7,10.6-32.5c7.1-9.8,16.5-17.7,28.3-23.6c11.8-6,24.6-8.9,38.5-8.9l0,0c11.4,0,22.1,1.3,32,3.9
			c9.9,2.6,19,6.1,27.1,10.6l0,0l3.3,50.6h-6l-27.1-39.8c-4.2-2.5-8.5-4.2-12.8-5.2c-4.3-1-9.2-1.5-14.7-1.5l0,0
			c-9.9,0-17.9,2.5-24,7.6c-6.1,5.1-9.1,12-9.1,20.6l0,0c0,5.7,1.4,10.5,4.3,14.3c2.9,3.8,7.6,7.6,14.1,11.3s15.2,8.2,25.8,13.4l0,0
			c13.1,6.4,23.9,12.8,32.4,19c8.4,6.2,14.6,13,18.6,20.5c4,7.4,6,16.4,6,26.8l0,0c0,12.9-3.7,24.2-11,33.8
			c-7.3,9.7-17.2,17.1-29.8,22.3C1683.8,681.2,1669.9,683.8,1654.5,683.8z"/>
		<path class="st1" d="M1862.8,683.8L1862.8,683.8c-14.1,0-26.6-1.5-37.4-4.5c-10.8-3-21.1-6.9-31.1-11.9l0,0l-3.3-52.8h6l25.7,39.8
			c11.2,7.2,24,10.8,38.7,10.8l0,0c12.1,0,21.7-2.4,28.6-7.1c6.9-4.7,10.4-11.8,10.4-21.2l0,0c0-6.9-1.9-12.5-5.6-16.5
			c-3.7-4.1-9.7-8.2-18-12.3c-8.3-4.1-19.3-9.4-32.9-15.8l0,0c-15.4-6.9-26.8-15.1-34.4-24.5c-7.6-9.4-11.3-21.1-11.3-35l0,0
			c0-11.9,3.5-22.7,10.6-32.5c7.1-9.8,16.5-17.7,28.3-23.6c11.8-6,24.6-8.9,38.5-8.9l0,0c11.4,0,22.1,1.3,32,3.9
			c9.9,2.6,19,6.1,27.1,10.6l0,0l3.3,50.6h-6l-27.1-39.8c-4.2-2.5-8.5-4.2-12.8-5.2c-4.3-1-9.2-1.5-14.7-1.5l0,0
			c-9.9,0-17.9,2.5-24,7.6c-6.1,5.1-9.1,12-9.1,20.6l0,0c0,5.7,1.4,10.5,4.3,14.3c2.9,3.8,7.6,7.6,14.1,11.3s15.2,8.2,25.8,13.4l0,0
			c13.1,6.4,23.9,12.8,32.4,19c8.4,6.2,14.6,13,18.6,20.5c4,7.4,6,16.4,6,26.8l0,0c0,12.9-3.7,24.2-11,33.8
			c-7.3,9.7-17.2,17.1-29.8,22.3C1892.1,681.2,1878.1,683.8,1862.8,683.8z"/>
		<path class="st1" d="M2111.9,683.8L2111.9,683.8c-21.8,0-41.1-4.7-57.8-14.1c-16.7-9.4-29.9-22.3-39.6-38.5s-14.5-34.8-14.5-55.6
			l0,0c0-20.6,4.8-39,14.5-55.4c9.7-16.4,22.9-29.3,39.6-38.7c16.7-9.4,36-14.1,57.8-14.1l0,0c21.8,0,41.2,4.7,58,14.1
			c16.9,9.4,30.1,22.3,39.8,38.7c9.7,16.4,14.5,34.8,14.5,55.4l0,0c0,20.8-4.8,39.4-14.5,55.6s-22.9,29.1-39.8,38.5
			S2133.8,683.8,2111.9,683.8z M2117.1,664.5L2117.1,664.5c15.9,0,28.3-7.4,37.4-22.3c9-14.9,13.6-34,13.6-57.3l0,0
			c0-19.1-2.5-36-7.6-50.8c-5.1-14.8-12.1-26.3-21.2-34.8c-9-8.4-19.4-12.6-31.1-12.6l0,0c-10.4,0-19.5,3.3-27.3,10
			c-7.8,6.7-13.9,16-18.2,27.9c-4.3,11.9-6.5,25.7-6.5,41.3l0,0c0,19.1,2.6,36.1,7.8,50.9c5.2,14.9,12.4,26.5,21.6,35
			C2094.7,660.3,2105.2,664.5,2117.1,664.5z M3665.3,1000.1"/>
		<path class="st1" d="M2474.5,680.1h-86.3v-6.3l27.5-12.3V490.1l-27.5-12.3v-6h67.3l123.8,137.6V490.1l-36.1-12.3v-6h85.9v6
			l-27.1,12.3v191.5h-26.4l-137.2-151.4v130.9l36.1,12.6V680.1z"/>
		<path class="st1" d="M2868,680.1h-188.5v-6l27.5-12.3V490.1l-27.5-12.3v-6h179.6v55.8h-6l-24.2-36.8h-67.7v72.9h48l17.1-26.8h5.6
			v70.7h-5.6l-17.1-26.4h-48v80h75.1l25.7-48h5.9V680.1z"/>
		<path class="st1" d="M3106.4,680.1h-184.1v-6l27.5-12.3V490.1l-27.5-12.3v-6h112.3v6l-30.5,12.3v171.1h68.4l27.9-60.6h6V680.1z"/>
		<path class="st1" d="M3665.3,1000.1"/>
		<path class="st1" d="M3460.8,680.1h-188.5v-6l27.5-12.3V490.1l-27.5-12.3v-6h179.6v55.8h-6l-24.2-36.8H3354v72.9h48l17.1-26.8h5.6
			v70.7h-5.6l-17.1-26.4h-48v80h75.1l25.7-48h6V680.1z"/>
		<path class="st1" d="M3624.8,680.1h-109.7v-6l27.5-12.3V490.1l-27.5-12.3v-6H3627c25.5,0,47.2,4.1,65.1,12.3
			c17.9,8.2,31.5,19.3,40.9,33.5c9.4,14.1,14.1,30.4,14.1,48.7l0,0c0,22.3-5.1,42-15.4,59.1s-24.6,30.5-43,40.2
			C3670.4,675.3,3649.1,680.1,3624.8,680.1L3624.8,680.1z M3609.5,490.8L3609.5,490.8h-12.6v170.3h16.4c25.3,0,44.6-7.6,57.8-22.9
			c13.3-15.2,19.9-36.1,19.9-62.7l0,0c0-27-6.8-47.9-20.5-62.7C3656.9,498.2,3636.5,490.8,3609.5,490.8z"/>
		<path class="st1" d="M3905.5,680.1h-105.6v-6l24.5-12.3V490.1l-24.5-12.3v-6h105.6v6l-26.8,12.3v171.8l26.8,12.3V680.1z"/>
		<path class="st1" d="M4141.3,680.1h-184.1v-6l27.5-12.3V490.1l-27.5-12.3v-6h112.3v6l-30.5,12.3v171.1h68.4l27.9-60.6h6V680.1z"/>
		<path class="st1" d="M4302,680.1h-105.6v-6l24.5-12.3V490.1l-24.5-12.3v-6H4302v6l-26.8,12.3v171.8l26.8,12.3V680.1z"/>
		<path class="st1" d="M4547,680.1h-178.5v-10l109-179.2h-74.7l-24.5,48h-5.9v-66.9h171.1v10L4434,661.1h81.1l26-51.3h6V680.1z"/>
		<path class="st1" d="M4719.6,680.1H4614v-6l24.5-12.3V490.1l-24.5-12.3v-6h105.6v6l-26.8,12.3v171.8l26.8,12.3V680.1z"/>
		<path class="st1" d="M4831.2,680.1H4762v-6l19-10.8l82.9-193.4h31.6l81.4,191.1l23.1,13v6h-104.1v-6l26.4-11.2l-21.2-50.9H4826
			l-21.2,50.9l26.4,11.2V680.1z M4863.1,522l-29.4,71h59.1L4863.1,522z"/>
	</g>
</g>
</svg>
