<svg viewBox="0 0 396 54.1579" width="5000px" height="683.8118909585355px" xmlns="http://www.w3.org/2000/svg" xmlns:xlink="http://www.w3.org/1999/xlink" preserveAspectRatio="none"><defs></defs><style>.companyNameHLWA5FrZFt {fill:#E1E1E1;fill-opacity:1;}.icon1HLWA5FrZFt {fill:#E1E1E1;fill-opacity:1;}.icon2HLWA5FrZFt {fill:#474747;fill-opacity:1;}.icon3HLWA5FrZFt {fill:#7C7C7C;fill-opacity:1;}.shapeStroke-strHLWA5FrZFt {stroke:#E1E1E1;stroke-opacity:1;}</style><g opacity="1" transform="rotate(0 185.6664 0)">
        <svg width="24.6672" height="19.514" x="185.6664" y="0" version="1.1" preserveAspectRatio="none" viewBox="25.9679012298584 30.976905822753903 48.06419372558594 38.023284912109375">
          <g transform="matrix(1 0 0 1 0 0)" class="icon1HLWA5FrZFt"><title>Artboard 265</title><path d="M32,69H68a2,2,0,0,0,2-1.67l4-24a2,2,0,0,0-3-2.07L58.93,48.17l-7.1-16a2,2,0,0,0-3.66,0l-7.1,16L29,41.26a2,2,0,0,0-3,2.07l4,24A2,2,0,0,0,32,69Zm9-16.26a2,2,0,0,0,1.61.16,2,2,0,0,0,1.21-1.09L50,37.92l6.17,13.89a2,2,0,0,0,1.21,1.09A2,2,0,0,0,59,52.74l10.34-5.91L66.31,65H33.69l-3-18.17Z"></path></g>
        </svg>
      </g><g opacity="1" transform="rotate(0 0 13.045999999999992)">
        <svg width="173.3328" height="1.6444" x="0" y="13.045999999999992" version="1.1" preserveAspectRatio="none" viewBox="0 0 173.3328 1.6444">
          <rect x="0" y="0" width="173.3328" height="1.6444" class="icon1HLWA5FrZFt shapeStroke-strHLWA5FrZFt" style="stroke-width:0;" rx="0px" ry="0px"></rect>
        </svg>
      </g><g opacity="1" transform="rotate(0 222.66719999999998 13.045999999999992)">
        <svg width="173.3328" height="1.6444" x="222.66719999999998" y="13.045999999999992" version="1.1" preserveAspectRatio="none" viewBox="0 0 173.3328 1.6444">
          <rect x="0" y="0" width="173.3328" height="1.6444" class="icon1HLWA5FrZFt shapeStroke-strHLWA5FrZFt" style="stroke-width:0;" rx="0px" ry="0px"></rect>
        </svg>
      </g><g opacity="1" transform="rotate(0 0 34.424199999999985)">
        <svg width="396" height="19.7337" x="0" y="34.424199999999985" version="1.1" preserveAspectRatio="none" viewBox="1.76 -26.4 537.8000000000001 26.8">
          <g transform="matrix(1 0 0 1 0 0)" class="companyNameHLWA5FrZFt"><path transform="" stroke="none" d="M15.28 0L1.76 0L1.76-0.64L5.16-2.28L5.16-24.12L1.76-25.76L1.76-26.40L15.60-26.40Q20.32-26.40 23.18-24.70Q26.04-23 26.04-19.28L26.04-19.28Q26.04-17.04 24.54-15.34Q23.04-13.64 20.48-12.70Q17.92-11.76 14.64-11.76L14.64-11.76L11.20-11.76L11.20-2.28L15.28-0.64L15.28 0ZM12.88-24.20L11.20-24.20L11.20-13.72L13.12-13.72Q16.32-13.72 18.12-15.20Q19.92-16.68 19.92-18.92L19.92-18.92Q19.92-21.72 18.08-22.96Q16.24-24.20 12.88-24.20L12.88-24.20Z"></path>
    <path transform="" stroke="none" d="M42.48 0L31.12 0L31.12-0.64L34.08-1.96L34.08-20.44L31.12-21.76L31.12-22.40L43.36-22.40Q47-22.40 49.10-20.94Q51.20-19.48 51.20-16.96L51.20-16.96Q51.20-13.28 46.72-11.72L46.72-11.72L52.88-1.92L55.48-0.64L55.48 0L47.20 0L41.40-10.20L39.92-10.20L39.92-2L42.48-0.64L42.48 0ZM41.04-20.56L41.04-20.56L39.92-20.56L39.92-12.08L41.16-12.08Q43.28-12.08 44.30-13.26Q45.32-14.44 45.32-16.40L45.32-16.40Q45.32-20.56 41.04-20.56Z"></path>
    <path transform="" stroke="none" d="M71.16 0.40L71.16 0.40Q67.64 0.40 64.94-1.12Q62.24-2.64 60.68-5.26Q59.12-7.88 59.12-11.24L59.12-11.24Q59.12-14.56 60.68-17.20Q62.24-19.84 64.94-21.36Q67.64-22.88 71.16-22.88L71.16-22.88Q74.68-22.88 77.40-21.36Q80.12-19.84 81.68-17.20Q83.24-14.56 83.24-11.24L83.24-11.24Q83.24-7.88 81.68-5.26Q80.12-2.64 77.40-1.12Q74.68 0.40 71.16 0.40ZM71.72-1.68L71.72-1.68Q74.28-1.68 75.74-4.08Q77.20-6.48 77.20-10.24L77.20-10.24Q77.20-13.32 76.38-15.70Q75.56-18.08 74.10-19.44Q72.64-20.80 70.76-20.80L70.76-20.80Q69.08-20.80 67.82-19.72Q66.56-18.64 65.86-16.72Q65.16-14.80 65.16-12.28L65.16-12.28Q65.16-9.20 66-6.80Q66.84-4.40 68.32-3.04Q69.80-1.68 71.72-1.68Z"></path>
    <path transform="" stroke="none" d="M101.32 0.40L101.32 0.40Q97.92 0.40 95.18-1Q92.44-2.40 90.82-4.92Q89.20-7.44 89.20-10.76L89.20-10.76Q89.20-13.44 90.24-15.66Q91.28-17.88 93.12-19.50Q94.96-21.12 97.36-21.98Q99.76-22.84 102.48-22.84L102.48-22.84Q105.16-22.84 106.86-22.36Q108.56-21.88 110.04-21.20L110.04-21.20L110.40-15.20L109.72-15.20L106.80-19.68Q105.72-20.36 104.86-20.62Q104.00-20.88 102.84-20.88L102.84-20.88Q100.40-20.88 98.66-19.66Q96.92-18.44 96.00-16.30Q95.08-14.16 95.08-11.36L95.08-11.36Q95.08-7 97.04-4.34Q99.00-1.68 102.56-1.68L102.56-1.68Q103.64-1.68 104.72-1.92L104.72-1.92L104.72-8.04L101.68-9.60L101.68-10.20L113.00-10.20L113.00-9.60L110.44-8L110.44-2.44Q109.48-1.60 107.98-0.96Q106.48-0.32 104.76 0.04Q103.04 0.40 101.32 0.40Z"></path>
    <path transform="" stroke="none" d="M129.32 0L117.96 0L117.96-0.64L120.92-1.96L120.92-20.44L117.96-21.76L117.96-22.40L130.20-22.40Q133.84-22.40 135.94-20.94Q138.04-19.48 138.04-16.96L138.04-16.96Q138.04-13.28 133.56-11.72L133.56-11.72L139.72-1.92L142.32-0.64L142.32 0L134.04 0L128.24-10.20L126.76-10.20L126.76-2L129.32-0.64L129.32 0ZM127.88-20.56L127.88-20.56L126.76-20.56L126.76-12.08L128.00-12.08Q130.12-12.08 131.14-13.26Q132.16-14.44 132.16-16.40L132.16-16.40Q132.16-20.56 127.88-20.56Z"></path>
    <path transform="" stroke="none" d="M166.04 0L145.76 0L145.76-0.64L148.72-1.96L148.72-20.44L145.76-21.76L145.76-22.40L165.08-22.40L165.08-16.40L164.44-16.40L161.84-20.36L154.56-20.36L154.56-12.52L159.72-12.52L161.56-15.40L162.16-15.40L162.16-7.80L161.56-7.80L159.72-10.64L154.56-10.64L154.56-2.04L162.64-2.04L165.40-7.20L166.04-7.20L166.04 0Z"></path>
    <path transform="" stroke="none" d="M179.72 0.40L179.72 0.40Q177.44 0.40 175.70-0.08Q173.96-0.56 172.36-1.36L172.36-1.36L172-7.04L172.64-7.04L175.40-2.76Q177.20-1.60 179.56-1.60L179.56-1.60Q181.52-1.60 182.64-2.36Q183.76-3.12 183.76-4.64L183.76-4.64Q183.76-5.76 183.16-6.42Q182.56-7.08 181.22-7.74Q179.88-8.40 177.68-9.44L177.68-9.44Q175.20-10.56 173.98-12.08Q172.76-13.60 172.76-15.84L172.76-15.84Q172.76-17.76 173.90-19.34Q175.04-20.92 176.94-21.88Q178.84-22.84 181.08-22.84L181.08-22.84Q182.92-22.84 184.52-22.42Q186.12-22 187.44-21.28L187.44-21.28L187.80-15.84L187.16-15.84L184.24-20.12Q183.56-20.52 182.86-20.68Q182.16-20.84 181.28-20.84L181.28-20.84Q179.68-20.84 178.70-20.02Q177.72-19.20 177.72-17.80L177.72-17.80Q177.72-16.88 178.18-16.26Q178.64-15.64 179.70-15.04Q180.76-14.44 182.48-13.60L182.48-13.60Q184.60-12.56 185.96-11.56Q187.32-10.56 187.96-9.36Q188.60-8.16 188.60-6.48L188.60-6.48Q188.60-4.40 187.42-2.84Q186.24-1.28 184.22-0.44Q182.20 0.40 179.72 0.40Z"></path>
    <path transform="" stroke="none" d="M202.12 0.40L202.12 0.40Q199.84 0.40 198.10-0.08Q196.36-0.56 194.76-1.36L194.76-1.36L194.40-7.04L195.04-7.04L197.80-2.76Q199.60-1.60 201.96-1.60L201.96-1.60Q203.92-1.60 205.04-2.36Q206.16-3.12 206.16-4.64L206.16-4.64Q206.16-5.76 205.56-6.42Q204.96-7.08 203.62-7.74Q202.28-8.40 200.08-9.44L200.08-9.44Q197.60-10.56 196.38-12.08Q195.16-13.60 195.16-15.84L195.16-15.84Q195.16-17.76 196.30-19.34Q197.44-20.92 199.34-21.88Q201.24-22.84 203.48-22.84L203.48-22.84Q205.32-22.84 206.92-22.42Q208.52-22 209.84-21.28L209.84-21.28L210.20-15.84L209.56-15.84L206.64-20.12Q205.96-20.52 205.26-20.68Q204.56-20.84 203.68-20.84L203.68-20.84Q202.08-20.84 201.10-20.02Q200.12-19.20 200.12-17.80L200.12-17.80Q200.12-16.88 200.58-16.26Q201.04-15.64 202.10-15.04Q203.16-14.44 204.88-13.60L204.88-13.60Q207-12.56 208.36-11.56Q209.72-10.56 210.36-9.36Q211-8.16 211-6.48L211-6.48Q211-4.40 209.82-2.84Q208.64-1.28 206.62-0.44Q204.60 0.40 202.12 0.40Z"></path>
    <path transform="" stroke="none" d="M228.92 0.40L228.92 0.40Q225.40 0.40 222.70-1.12Q220.00-2.64 218.44-5.26Q216.88-7.88 216.88-11.24L216.88-11.24Q216.88-14.56 218.44-17.20Q220.00-19.84 222.70-21.36Q225.40-22.88 228.92-22.88L228.92-22.88Q232.44-22.88 235.16-21.36Q237.88-19.84 239.44-17.20Q241.00-14.56 241.00-11.24L241.00-11.24Q241.00-7.88 239.44-5.26Q237.88-2.64 235.16-1.12Q232.44 0.40 228.92 0.40ZM229.48-1.68L229.48-1.68Q232.04-1.68 233.50-4.08Q234.96-6.48 234.96-10.24L234.96-10.24Q234.96-13.32 234.14-15.70Q233.32-18.08 231.86-19.44Q230.40-20.80 228.52-20.80L228.52-20.80Q226.84-20.80 225.58-19.72Q224.32-18.64 223.62-16.72Q222.92-14.80 222.92-12.28L222.92-12.28Q222.92-9.20 223.76-6.80Q224.60-4.40 226.08-3.04Q227.56-1.68 229.48-1.68Z"></path>
    <path transform="" stroke="none" d=""></path>
    <path transform="" stroke="none" d="M267.92 0L258.64 0L258.64-0.68L261.60-2L261.60-20.44L258.64-21.76L258.64-22.40L265.88-22.40L279.20-7.60L279.20-20.44L275.32-21.76L275.32-22.40L284.56-22.40L284.56-21.76L281.64-20.44L281.64 0.16L278.80 0.16L264.04-16.12L264.04-2.04L267.92-0.68L267.92 0Z"></path>
    <path transform="" stroke="none" d="M310.24 0L289.96 0L289.96-0.64L292.92-1.96L292.92-20.44L289.96-21.76L289.96-22.40L309.28-22.40L309.28-16.40L308.64-16.40L306.04-20.36L298.76-20.36L298.76-12.52L303.92-12.52L305.76-15.40L306.36-15.40L306.36-7.80L305.76-7.80L303.92-10.64L298.76-10.64L298.76-2.04L306.84-2.04L309.60-7.20L310.24-7.20L310.24 0Z"></path>
    <path transform="" stroke="none" d="M335.88 0L316.08 0L316.08-0.64L319.04-1.96L319.04-20.44L316.08-21.76L316.08-22.40L328.16-22.40L328.16-21.76L324.88-20.44L324.88-2.04L332.24-2.04L335.24-8.56L335.88-8.56L335.88 0Z"></path>
    <path transform="" stroke="none" d=""></path>
    <path transform="" stroke="none" d="M374.00 0L353.72 0L353.72-0.64L356.68-1.96L356.68-20.44L353.72-21.76L353.72-22.40L373.04-22.40L373.04-16.40L372.40-16.40L369.80-20.36L362.52-20.36L362.52-12.52L367.68-12.52L369.52-15.40L370.12-15.40L370.12-7.80L369.52-7.80L367.68-10.64L362.52-10.64L362.52-2.04L370.60-2.04L373.36-7.20L374.00-7.20L374.00 0Z"></path>
    <path transform="" stroke="none" d="M391.64 0L379.84 0L379.84-0.64L382.80-1.96L382.80-20.44L379.84-21.76L379.84-22.40L391.88-22.40Q396.00-22.40 398.88-21.08Q401.76-19.76 403.28-17.48Q404.80-15.20 404.80-12.24L404.80-12.24Q404.80-8.64 403.14-5.88Q401.48-3.12 398.52-1.56Q395.56 0 391.64 0L391.64 0ZM390.00-20.36L390.00-20.36L388.64-20.36L388.64-2.04L390.40-2.04Q394.48-2.04 396.62-4.50Q398.76-6.96 398.76-11.24L398.76-11.24Q398.76-15.60 396.56-17.98Q394.36-20.36 390.00-20.36Z"></path>
    <path transform="" stroke="none" d="M421.84 0L410.48 0L410.48-0.64L413.12-1.96L413.12-20.44L410.48-21.76L410.48-22.40L421.84-22.40L421.84-21.76L418.96-20.44L418.96-1.96L421.84-0.64L421.84 0Z"></path>
    <path transform="" stroke="none" d="M447.20 0L427.40 0L427.40-0.64L430.36-1.96L430.36-20.44L427.40-21.76L427.40-22.40L439.48-22.40L439.48-21.76L436.20-20.44L436.20-2.04L443.56-2.04L446.56-8.56L447.20-8.56L447.20 0Z"></path>
    <path transform="" stroke="none" d="M464.48 0L453.12 0L453.12-0.64L455.76-1.96L455.76-20.44L453.12-21.76L453.12-22.40L464.48-22.40L464.48-21.76L461.60-20.44L461.60-1.96L464.48-0.64L464.48 0Z"></path>
    <path transform="" stroke="none" d="M490.84 0L471.64 0L471.64-1.08L483.36-20.36L475.32-20.36L472.68-15.20L472.04-15.20L472.04-22.40L490.44-22.40L490.44-21.32L478.68-2.04L487.40-2.04L490.20-7.56L490.84-7.56L490.84 0Z"></path>
    <path transform="" stroke="none" d="M509.40 0L498.04 0L498.04-0.64L500.68-1.96L500.68-20.44L498.04-21.76L498.04-22.40L509.40-22.40L509.40-21.76L506.52-20.44L506.52-1.96L509.40-0.64L509.40 0Z"></path>
    <path transform="" stroke="none" d="M521.40 0L513.96 0L513.96-0.64L516-1.80L524.92-22.60L528.32-22.60L537.08-2.04L539.56-0.64L539.56 0L528.36 0L528.36-0.64L531.20-1.84L528.92-7.32L520.84-7.32L518.56-1.84L521.40-0.64L521.40 0ZM524.84-17L521.68-9.36L528.04-9.36L524.84-17Z"></path>
    </g>
        </svg>
      </g></svg>